<?xml version="1.0" encoding="utf-8"?>
<!-- Generator: Adobe Illustrator 24.3.0, SVG Export Plug-In . SVG Version: 6.00 Build 0)  -->
<svg version="1.1" id="Layer_1" xmlns="http://www.w3.org/2000/svg" xmlns:xlink="http://www.w3.org/1999/xlink" x="0px" y="0px"
	 viewBox="0 0 1080 1080" style="enable-background:new 0 0 1080 1080;" xml:space="preserve">
<style type="text/css">
	.st0{fill:none;stroke:#161615;stroke-width:3.45;stroke-miterlimit:10;}
	.st1{fill:none;stroke:#DB0D16;stroke-width:5.175;stroke-miterlimit:10;}
	.st2{fill:none;stroke:#010202;stroke-width:5.175;}
	.st3{fill:#010202;}
	.st4{font-family:'DiaryOfAWimpyKidFont-Rg';}
	.st5{font-size:87.9755px;}
</style>
<g id="Group_10" transform="translate(4803.985 -626.041)">
	<path id="Path_45" class="st0" d="M-4281.4,1450.3c0,6.6,0,15.6,0,22.2c0.3,4.3-0.1,8.6-1.2,12.7c-1.1,2.5-1.8,5.1-2.2,7.8
		c-0.3,3.3,0.8,7-0.3,10.3c-1.1,3.3-1.5,6.8-1.3,10.4c0,13.8,0,27.6,0,41.4"/>
	<g id="Group_9" transform="translate(0.001 0)">
		<path id="Path_46" class="st0" d="M-4253.4,862.3c15.4,0.6,28.1-4.5,41.6-2.9c10.9,1.3,22.4,2.7,33.3,3c6.1,0.2,12.4-0.4,18.5-0.1
			c2.6,0.1,4.3,1.1,6.8,1.4c2.1,0.3,4.3-0.3,6.5,0c1,2.6,0.3,6.2,0.3,9c0,4.7,0,9.5,0,14.2c-0.1,10.5,1.2,20.8,2.1,31.3
			c1.4,15.5,2.3,31.1,3.4,46.6c1.4,19.4,4.8,39,4.7,58.4c-0.1,17.2,0,34.3,0,51.5c0,13.2,0.6,26.5,0.1,39.7
			c-0.3,7.1-1.9,14.1-1.8,21.2c0.1,8.3,0,16.6,0,24.9c0,23.1-0.1,46.1,0,69.2c-0.2,5.6-0.7,11.2-1.5,16.7
			c-0.7,6.5-0.1,13.2-0.1,19.7c0,9.2,0,18.5,0,27.7c0,9.1-1.7,17.8-1.7,26.9c0,9,0,18,0,27v88.3c0,5.7,0.8,11.8-0.4,17.5
			c-0.9,4.2-1.3,8.5-1.3,12.8c0,11.1,0.8,22.4,0.1,33.5c-0.3,5-1.8,9.5-1.8,14.5c0,3.6,0,7.3,0,10.9c0,3.1,0.2,6.2,0.1,9.3
			c-0.1,2.9-2.4,5.7-1.7,8.7c0-3.6-0.5-7.3,0.4-10.9c0.8-2.3,1.2-4.6,1.3-7"/>
		<path id="Path_47" class="st0" d="M-4276.3,861c-0.2,15,2.8,29.9,3.4,44.9c0.7,18.5,1.7,37,1.7,55.5c0,9.7,0,19.3,0,29
			c0,12.2-1.8,24.1-1.7,36.2c0.2,23.2,1.7,46.3,1.7,69.5v35.2c0,3.9,0,7.8,0,11.7c0.1,6.3-1.5,12.3-1.8,18.5
			c-0.6,11.5,0.6,22.9-1.2,34.4c-1.7,11.1-0.4,22.9-0.4,34c0,18.2-3.4,36.1-3.4,54.3c0,16.1,0,32.2,0,48.2c0,7.2-0.1,14.5,0,21.7
			c0,7.4-1.7,14.5-1.7,21.9c0.1,4.9-0.5,9.7-1.6,14.4c-0.9,4.1-0.1,8.6-0.1,12.7c0,6.3,0,12.6,0,18.9v29.1"/>
		<path id="Path_48" class="st0" d="M-4286.5,1555c11.9,0.2,23.8,1.2,35.6,2.9c8.5,1.1,17.2,1.5,25.7,2.6c9.6,1.3,19.2,1,29,1
			c7.5,0,15.6,0.6,22.9-0.6c6-1,12.3-1.9,18.1-3.2c5.9-1.4,7.6-5.8,8.7-10.4"/>
		<path id="Path_49" class="st0" d="M-4250.5,862.8h-28.4"/>
	</g>
</g>
<path id="Path_51" class="st1" d="M592.7,130.1v104.4"/>
<g id="Group_19" transform="translate(4742.015 -280.959)">
	<path id="Path_54" class="st2" d="M-4274,1167.3h48.7"/>
	<text transform="matrix(1 0 0 1 -4331.3945 1167.8909)" class="st3 st4 st5">0</text>
</g>
</svg>
